<svg xmlns="http://www.w3.org/2000/svg"
     viewBox="0 0 160 420" width="160" height="420">
  <!--
    Artistic mountain goat — entirely stroke-based, no body fills.
    Fur lines in gray (#aaa/#999/#888) and light green patches (#8dc870/#7ab060/#a0d060).
    Forelegs rest on a textured boulder. Side-angled quadruped pose.

    Coordinate system: pre-flip (right-facing). Root transform mirrors to face left.
  -->
  <g transform="translate(160,0) scale(-1,1)">

    <!-- ── FAR BACK LEG ── -->
    <!-- Thigh gray -->
    <path d="M 44,212 L 43,228 M 46,214 L 45,230 M 42,218 L 41,234
             M 45,222 L 44,238 M 43,228 L 42,244 M 41,232 L 40,248"
          fill="none" stroke="#aaa" stroke-width="1.1" stroke-linecap="round"/>
    <!-- Thigh green patch -->
    <path d="M 47,236 L 46,252 M 45,242 L 44,258 M 43,248 L 42,264
             M 41,244 L 40,260 M 46,250 L 45,266"
          fill="none" stroke="#8dc870" stroke-width="1.1" stroke-linecap="round"/>
    <!-- Far shin -->
    <path d="M 43,272 L 41,288 M 41,276 L 39,292 M 45,274 L 43,290
             M 39,282 L 38,298 M 42,288 L 41,304"
          fill="none" stroke="#999" stroke-width="1.1" stroke-linecap="round"/>
    <path d="M 41,304 L 40,320 M 39,308 L 38,324 M 37,312 L 36,328
             M 40,316 L 39,332 M 38,320 L 37,336"
          fill="none" stroke="#aaa" stroke-width="1.0" stroke-linecap="round"/>
    <!-- Far fetlock tuft -->
    <path d="M 39,334 L 36,348 M 41,336 L 39,352 M 37,338 L 34,354
             M 43,337 L 42,353"
          fill="none" stroke="#ccc" stroke-width="1.2" stroke-linecap="round"/>
    <!-- Far hoof -->
    <path d="M 36,352 C 35,368 35,386 36,406 M 40,353 C 40,369 41,387 42,406"
          fill="none" stroke="#555" stroke-width="2" stroke-linecap="round"/>
    <path d="M 35,405 L 44,405" fill="none" stroke="#444" stroke-width="2.5" stroke-linecap="round"/>

    <!-- ── FAR BARREL (rear half of body) ── -->
    <path d="M 48,152 L 62,150 M 46,156 L 60,154 M 48,160 L 63,158
             M 46,165 L 62,163 M 48,169 L 65,167"
          fill="none" stroke="#aaa" stroke-width="1.2" stroke-linecap="round"/>
    <!-- Far haunch curves -->
    <path d="M 42,158 C 41,170 42,186 44,200
             M 45,154 C 44,166 45,182 47,196
             M 48,151 C 47,163 48,179 50,193"
          fill="none" stroke="#8dc870" stroke-width="1.2" stroke-linecap="round"/>

    <!-- ── NEAR BACK LEG ── -->
    <!-- Thigh gray -->
    <path d="M 55,208 L 54,224 M 57,210 L 56,226 M 53,212 L 52,228
             M 56,217 L 55,233 M 54,222 L 53,238 M 58,215 L 57,231"
          fill="none" stroke="#888" stroke-width="1.3" stroke-linecap="round"/>
    <!-- Thigh green -->
    <path d="M 58,232 L 57,248 M 56,237 L 55,253 M 60,234 L 59,250
             M 54,242 L 53,258 M 57,247 L 56,263"
          fill="none" stroke="#7ab060" stroke-width="1.2" stroke-linecap="round"/>
    <!-- Near shin -->
    <path d="M 56,262 L 54,278 M 54,267 L 52,283 M 58,264 L 56,280
             M 52,273 L 50,289 M 55,278 L 53,294"
          fill="none" stroke="#999" stroke-width="1.2" stroke-linecap="round"/>
    <path d="M 54,293 L 53,309 M 52,297 L 51,313 M 50,301 L 49,317
             M 53,305 L 52,321 M 51,309 L 50,325"
          fill="none" stroke="#888" stroke-width="1.3" stroke-linecap="round"/>
    <!-- Near fetlock -->
    <path d="M 53,330 L 50,344 M 55,332 L 53,348 M 51,334 L 48,350
             M 57,333 L 56,349"
          fill="none" stroke="#aaa" stroke-width="1.3" stroke-linecap="round"/>
    <!-- Near hoof -->
    <path d="M 49,348 C 48,364 48,382 48,402 M 53,349 C 53,366 54,384 55,403"
          fill="none" stroke="#444" stroke-width="2.2" stroke-linecap="round"/>
    <path d="M 47,402 L 57,403" fill="none" stroke="#333" stroke-width="2.5" stroke-linecap="round"/>

    <!-- ── TAIL — short white puff ── -->
    <path d="M 42,150 L 39,138 M 44,149 L 41,136 M 40,152 L 37,139
             M 46,151 L 44,138 M 38,154 L 35,141 M 48,153 L 46,140"
          fill="none" stroke="#ddd" stroke-width="1.3" stroke-linecap="round"/>

    <!-- ── BOULDER ── -->
    <path d="M 60,276 C 50,268 28,268 16,282
             C 6,298 12,348 22,382
             C 32,412 86,422 136,414
             C 156,406 166,380 160,348
             C 154,316 148,280 130,270
             C 112,260 74,270 60,276 Z"
          fill="#515151" stroke="#282828" stroke-width="1.5"/>
    <!-- Top highlight -->
    <path d="M 48,273 C 78,263 112,262 136,272"
          fill="none" stroke="#909090" stroke-width="1.5" stroke-linecap="round"/>
    <!-- Horizontal sweep curves — 3-D roundness -->
    <path d="M 18,295 C 54,285 102,283 150,291"
          fill="none" stroke="#363636" stroke-width="1" stroke-linecap="round"/>
    <path d="M 16,318 C 52,310 102,308 152,316"
          fill="none" stroke="#363636" stroke-width="1" stroke-linecap="round"/>
    <path d="M 20,342 C 56,334 104,332 152,340"
          fill="none" stroke="#363636" stroke-width="1" stroke-linecap="round"/>
    <path d="M 26,366 C 60,358 108,356 150,364"
          fill="none" stroke="#363636" stroke-width="1" stroke-linecap="round"/>
    <!-- Left shadow edge -->
    <path d="M 14,288 C 18,312 24,342 32,372"
          fill="none" stroke="#1c1c1c" stroke-width="2" stroke-linecap="round"/>
    <!-- Vertical cracks for texture -->
    <path d="M 82,268 C 84,293 80,324 78,360"
          fill="none" stroke="#2c2c2c" stroke-width="1.2" stroke-linecap="round"/>
    <path d="M 122,268 C 124,295 126,326 124,364"
          fill="none" stroke="#2c2c2c" stroke-width="1.0" stroke-linecap="round"/>

    <!-- ── BELLY ── -->
    <path d="M 54,210 L 60,212 M 64,209 L 70,211 M 74,208 L 80,210
             M 84,208 L 90,210 M 94,208 L 100,210 M 104,208 L 110,210"
          fill="none" stroke="#ccc" stroke-width="1.0" stroke-linecap="round"/>
    <path d="M 66,211 L 70,215 M 78,210 L 82,214 M 90,209 L 94,213
             M 102,209 L 106,213"
          fill="none" stroke="#a0d060" stroke-width="0.9" stroke-linecap="round"/>

    <!-- ── FAR FRONT LEG (on boulder) ── -->
    <path d="M 100,208 L 99,224 M 102,210 L 101,226 M 98,212 L 97,228
             M 101,216 L 100,232 M 99,220 L 98,236"
          fill="none" stroke="#aaa" stroke-width="1.2" stroke-linecap="round"/>
    <path d="M 99,232 L 98,248 M 101,235 L 100,251 M 97,238 L 96,254
             M 100,242 L 99,258 M 98,247 L 97,263"
          fill="none" stroke="#8dc870" stroke-width="1.1" stroke-linecap="round"/>
    <path d="M 98,258 L 97,274 M 100,260 L 99,276 M 96,262 L 95,278"
          fill="none" stroke="#999" stroke-width="1.1" stroke-linecap="round"/>

    <!-- ── BARREL NEAR SIDE (front half) ── -->
    <!-- Green mid-back patch -->
    <path d="M 64,150 L 80,148 M 66,154 L 82,152 M 64,158 L 82,156
             M 66,163 L 84,161 M 68,168 L 86,166"
          fill="none" stroke="#8dc870" stroke-width="1.2" stroke-linecap="round"/>
    <!-- Gray front of barrel -->
    <path d="M 86,148 L 102,146 M 88,152 L 104,150 M 86,156 L 104,154
             M 88,161 L 106,159 M 86,166 L 106,164 M 88,170 L 108,168"
          fill="none" stroke="#999" stroke-width="1.2" stroke-linecap="round"/>
    <!-- Side flank — slightly diagonal downward -->
    <path d="M 68,170 L 72,186 M 74,168 L 78,184 M 80,167 L 84,183
             M 86,166 L 90,182 M 92,165 L 96,181 M 98,165 L 102,181"
          fill="none" stroke="#aaa" stroke-width="1.2" stroke-linecap="round"/>
    <!-- Shoulder curves -->
    <path d="M 100,164 C 104,176 108,192 112,208
             M 104,162 C 108,174 112,190 116,206
             M 96,166 C 98,178 100,194 102,210"
          fill="none" stroke="#8dc870" stroke-width="1.2" stroke-linecap="round"/>
    <path d="M 108,162 C 112,174 116,190 120,206"
          fill="none" stroke="#999" stroke-width="1.2" stroke-linecap="round"/>

    <!-- ── NEAR FRONT LEG (on boulder) ── -->
    <path d="M 112,205 L 111,221 M 114,207 L 113,223 M 110,209 L 109,225
             M 113,214 L 112,230 M 111,219 L 110,235"
          fill="none" stroke="#888" stroke-width="1.3" stroke-linecap="round"/>
    <path d="M 111,231 L 110,247 M 113,233 L 112,249 M 109,236 L 108,252
             M 112,240 L 111,256 M 110,244 L 109,260"
          fill="none" stroke="#7ab060" stroke-width="1.2" stroke-linecap="round"/>
    <path d="M 110,256 L 109,272 M 112,258 L 111,274 M 108,260 L 107,276"
          fill="none" stroke="#888" stroke-width="1.3" stroke-linecap="round"/>

    <!-- ── NECK ── -->
    <path d="M 112,152 C 116,140 122,128 126,112
             M 116,150 C 120,138 126,126 130,110
             M 110,155 C 114,143 120,130 124,114"
          fill="none" stroke="#999" stroke-width="1.3" stroke-linecap="round"/>
    <path d="M 120,148 C 124,136 130,124 134,108
             M 118,152 C 122,140 128,128 132,112"
          fill="none" stroke="#8dc870" stroke-width="1.2" stroke-linecap="round"/>
    <path d="M 124,152 C 128,140 134,128 138,112
             M 126,154 C 130,142 136,130 140,114"
          fill="none" stroke="#aaa" stroke-width="1.1" stroke-linecap="round"/>

    <!-- ── EAR (near/low-x — slightly floppy) ── -->
    <path d="M 122,78 C 116,70 109,72 106,83
             C 103,94 108,105 117,104 C 124,101 125,88 122,78"
          fill="none" stroke="#888" stroke-width="1.5" stroke-linecap="round"/>
    <path d="M 119,80 C 114,76 111,81 111,90 C 111,98 116,104 120,102"
          fill="none" stroke="#bbb" stroke-width="1.0" stroke-linecap="round"/>

    <!-- ── HEAD ── -->
    <!-- Crown — gray -->
    <path d="M 124,72 L 128,82 M 126,70 L 130,80 M 122,74 L 126,84
             M 128,70 L 132,80 M 130,72 L 134,82"
          fill="none" stroke="#aaa" stroke-width="1.2" stroke-linecap="round"/>
    <!-- Crown — green patch -->
    <path d="M 134,70 L 138,80 M 132,68 L 136,78 M 136,70 L 140,80
             M 138,68 L 142,78"
          fill="none" stroke="#8dc870" stroke-width="1.2" stroke-linecap="round"/>
    <!-- Cheek -->
    <path d="M 138,82 L 146,84 M 136,86 L 144,88 M 138,90 L 146,92
             M 136,94 L 144,96 M 138,98 L 146,100 M 134,100 L 142,102"
          fill="none" stroke="#999" stroke-width="1.2" stroke-linecap="round"/>
    <!-- Muzzle -->
    <path d="M 146,84 L 154,86 M 144,88 L 152,90 M 146,92 L 154,94
             M 144,96 L 152,98"
          fill="none" stroke="#bbb" stroke-width="1.0" stroke-linecap="round"/>
    <!-- Nostrils -->
    <circle cx="153" cy="96" r="2" fill="#333" stroke="none"/>
    <circle cx="151" cy="100" r="1.5" fill="#444" stroke="none"/>

    <!-- ── BEARD ── -->
    <path d="M 150,104 L 149,119 M 148,107 L 147,123 M 146,109 L 145,126
             M 152,103 L 151,118 M 144,110 L 143,127"
          fill="none" stroke="#ccc" stroke-width="1.0" stroke-linecap="round"/>

    <!-- ── HORNS — no fill, sweep back from crown ── -->
    <!-- Far horn (high-x) -->
    <path d="M 124,70 C 122,58 116,44 110,37 C 106,31 102,33 100,42"
          fill="none" stroke="#a08040" stroke-width="3.5" stroke-linecap="round"/>
    <path d="M 100,42 C 99,48 102,56 106,54"
          fill="none" stroke="#a08040" stroke-width="2" stroke-linecap="round"/>
    <!-- Far horn annulation rings -->
    <path d="M 122,66 C 120,64 117,64 114,66
             M 118,59 C 116,57 113,57 111,59
             M 114,52 C 112,50 110,50 108,52"
          fill="none" stroke="#7a5c20" stroke-width="1" stroke-linecap="round"/>
    <!-- Near horn -->
    <path d="M 128,68 C 127,56 121,42 116,37 C 112,31 109,33 108,41"
          fill="none" stroke="#b09050" stroke-width="2.5" stroke-linecap="round"/>
    <path d="M 108,41 C 107,48 110,55 114,53"
          fill="none" stroke="#b09050" stroke-width="1.8" stroke-linecap="round"/>
    <!-- Near horn rings -->
    <path d="M 126,64 C 124,62 122,62 120,64
             M 122,57 C 120,55 118,55 116,57"
          fill="none" stroke="#9a7a30" stroke-width="1" stroke-linecap="round"/>

    <!-- ── GOAT EYE — amber iris, flat horizontal slit pupil ── -->
    <ellipse cx="140" cy="83" rx="7" ry="5.5"
             fill="#c4850a" stroke="#333" stroke-width="1"/>
    <ellipse cx="140" cy="83" rx="5.5" ry="1.8"
             fill="#1a0800" stroke="none"/>
    <circle  cx="142" cy="81" r="1.5"
             fill="white" stroke="none" opacity="0.7"/>

  </g>
</svg>
