<svg xmlns="http://www.w3.org/2000/svg" viewBox="0 0 200 260" width="200" height="260">
  <g fill="#1c1c2e">

    <!-- HEAD -->
    <ellipse cx="100" cy="40" rx="15" ry="18"/>

    <!-- Crest: 3 feather spikes -->
    <path d="M93,26 C91,17 88,10 90,16 C91,12 94,20 96,25Z"/>
    <path d="M100,23 C99,13 100,5 101,13 C102,9 103,17 103,23Z"/>
    <path d="M107,26 C109,17 112,10 110,16 C109,12 106,20 104,25Z"/>

    <!-- TORSO: neck → chest → waist → hips, meeting to a point -->
    <path d="
      M92,57
      C86,70 83,90 84,112
      C85,126 89,137 94,144
      C97,148 100,150 100,150
      C100,150 103,148 106,144
      C111,137 115,126 116,112
      C117,90 114,70 108,57
      C105,52 95,52 92,57Z
    "/>

    <!-- LEFT WING main mass -->
    <path d="
      M88,70
      C72,64 46,58 20,70
      C4,78 -1,100 3,126
      C7,148 24,158 42,152
      C57,147 68,132 76,114
      C84,96 87,80 88,70Z
    "/>
    <!-- Left trailing feather lobes -->
    <path d="M4,126 C1,140 6,152 15,150 C10,143 7,133 9,125Z"/>
    <path d="M24,153 C20,165 27,175 36,172 C29,164 24,153 28,146Z"/>
    <path d="M44,153 C41,165 48,174 56,171 C49,163 44,153 48,146Z"/>

    <!-- RIGHT WING main mass (mirror) -->
    <path d="
      M112,70
      C128,64 154,58 180,70
      C196,78 201,100 197,126
      C193,148 176,158 158,152
      C143,147 132,132 124,114
      C116,96 113,80 112,70Z
    "/>
    <!-- Right trailing feather lobes -->
    <path d="M196,126 C199,140 194,152 185,150 C190,143 193,133 191,125Z"/>
    <path d="M176,153 C180,165 173,175 164,172 C171,164 176,153 172,146Z"/>
    <path d="M156,153 C159,165 152,174 144,171 C151,163 156,153 152,146Z"/>

    <!-- LEFT LEG -->
    <path d="
      M91,150
      C89,163 87,175 85,188
      C88,185 92,178 94,165
      C95,155 94,150 91,150Z
    "/>

    <!-- RIGHT LEG -->
    <path d="
      M109,150
      C111,163 113,175 115,188
      C112,185 108,178 106,165
      C105,155 106,150 109,150Z
    "/>

    <!-- LEFT TALONS (foot at ~85,188) -->
    <path d="M83,188 L67,209 L71,211 L87,190Z"/>
    <path d="M85,188 L84,213 L88,213 L89,188Z"/>
    <path d="M87,188 L101,209 L105,207 L89,189Z"/>

    <!-- RIGHT TALONS (foot at ~115,188) -->
    <path d="M113,188 L99,209 L95,207 L111,189Z"/>
    <path d="M115,188 L116,213 L112,213 L111,188Z"/>
    <path d="M117,188 L133,209 L129,211 L113,190Z"/>

  </g>
</svg>
